<mxfile host="Electron" agent="Mozilla/5.0 (X11; Linux x86_64) AppleWebKit/537.36 (KHTML, like Gecko) draw.io/26.1.1 Chrome/132.0.6834.210 Electron/34.3.3 Safari/537.36" version="26.1.1">
  <diagram name="Страница — 1" id="Wn_fKAZBbb4LSu4z8Fir">
    <mxGraphModel dx="1434" dy="838" grid="1" gridSize="10" guides="1" tooltips="1" connect="1" arrows="1" fold="1" page="1" pageScale="1" pageWidth="1654" pageHeight="1169" math="0" shadow="0">
      <root>
        <mxCell id="0" />
        <mxCell id="1" parent="0" />
        <mxCell id="a1Kd-LdauhGFf-AvFF4y-1" value="ESP32&lt;div&gt;(micropython)&lt;/div&gt;" style="rounded=1;whiteSpace=wrap;html=1;" vertex="1" parent="1">
          <mxGeometry x="640" y="390" width="120" height="60" as="geometry" />
        </mxCell>
        <mxCell id="a1Kd-LdauhGFf-AvFF4y-3" style="edgeStyle=orthogonalEdgeStyle;rounded=0;orthogonalLoop=1;jettySize=auto;html=1;entryX=1;entryY=0.5;entryDx=0;entryDy=0;endArrow=none;startFill=0;" edge="1" parent="1" source="a1Kd-LdauhGFf-AvFF4y-2" target="a1Kd-LdauhGFf-AvFF4y-1">
          <mxGeometry relative="1" as="geometry" />
        </mxCell>
        <mxCell id="a1Kd-LdauhGFf-AvFF4y-13" value="" style="edgeStyle=orthogonalEdgeStyle;rounded=0;orthogonalLoop=1;jettySize=auto;html=1;endArrow=none;startFill=0;" edge="1" parent="1" source="a1Kd-LdauhGFf-AvFF4y-2" target="a1Kd-LdauhGFf-AvFF4y-12">
          <mxGeometry relative="1" as="geometry" />
        </mxCell>
        <mxCell id="a1Kd-LdauhGFf-AvFF4y-2" value="DS18B20&lt;div&gt;1Wire&lt;/div&gt;" style="ellipse;whiteSpace=wrap;html=1;aspect=fixed;labelPosition=center;verticalLabelPosition=bottom;align=center;verticalAlign=top;" vertex="1" parent="1">
          <mxGeometry x="800" y="405" width="30" height="30" as="geometry" />
        </mxCell>
        <mxCell id="a1Kd-LdauhGFf-AvFF4y-15" value="" style="edgeStyle=orthogonalEdgeStyle;rounded=0;orthogonalLoop=1;jettySize=auto;html=1;endArrow=none;startFill=0;" edge="1" parent="1" source="a1Kd-LdauhGFf-AvFF4y-12" target="a1Kd-LdauhGFf-AvFF4y-14">
          <mxGeometry relative="1" as="geometry" />
        </mxCell>
        <mxCell id="a1Kd-LdauhGFf-AvFF4y-12" value="DS18B20&lt;div&gt;1Wire&lt;/div&gt;" style="ellipse;whiteSpace=wrap;html=1;aspect=fixed;labelPosition=center;verticalLabelPosition=bottom;align=center;verticalAlign=top;" vertex="1" parent="1">
          <mxGeometry x="910" y="405" width="30" height="30" as="geometry" />
        </mxCell>
        <mxCell id="a1Kd-LdauhGFf-AvFF4y-17" value="" style="edgeStyle=orthogonalEdgeStyle;rounded=0;orthogonalLoop=1;jettySize=auto;html=1;endArrow=none;startFill=0;" edge="1" parent="1" source="a1Kd-LdauhGFf-AvFF4y-14" target="a1Kd-LdauhGFf-AvFF4y-16">
          <mxGeometry relative="1" as="geometry" />
        </mxCell>
        <mxCell id="a1Kd-LdauhGFf-AvFF4y-14" value="DS18B20&lt;div&gt;1Wire&lt;/div&gt;" style="ellipse;whiteSpace=wrap;html=1;aspect=fixed;labelPosition=center;verticalLabelPosition=bottom;align=center;verticalAlign=top;" vertex="1" parent="1">
          <mxGeometry x="1020" y="405" width="30" height="30" as="geometry" />
        </mxCell>
        <mxCell id="a1Kd-LdauhGFf-AvFF4y-16" value="DS18B20&lt;div&gt;1Wire&lt;/div&gt;" style="ellipse;whiteSpace=wrap;html=1;aspect=fixed;labelPosition=center;verticalLabelPosition=bottom;align=center;verticalAlign=top;" vertex="1" parent="1">
          <mxGeometry x="1130" y="405" width="30" height="30" as="geometry" />
        </mxCell>
        <mxCell id="a1Kd-LdauhGFf-AvFF4y-18" value="Backend module&lt;div&gt;(python)&lt;/div&gt;" style="whiteSpace=wrap;html=1;aspect=fixed;" vertex="1" parent="1">
          <mxGeometry x="300" y="340" width="160" height="160" as="geometry" />
        </mxCell>
        <mxCell id="a1Kd-LdauhGFf-AvFF4y-19" value="" style="shape=flexArrow;endArrow=classic;startArrow=classic;html=1;rounded=0;exitX=1;exitY=0.5;exitDx=0;exitDy=0;entryX=0;entryY=0.5;entryDx=0;entryDy=0;" edge="1" parent="1" source="a1Kd-LdauhGFf-AvFF4y-18" target="a1Kd-LdauhGFf-AvFF4y-1">
          <mxGeometry width="100" height="100" relative="1" as="geometry">
            <mxPoint x="650" y="470" as="sourcePoint" />
            <mxPoint x="750" y="370" as="targetPoint" />
          </mxGeometry>
        </mxCell>
        <mxCell id="a1Kd-LdauhGFf-AvFF4y-20" value="MODBUS TCP" style="edgeLabel;html=1;align=center;verticalAlign=middle;resizable=0;points=[];" vertex="1" connectable="0" parent="a1Kd-LdauhGFf-AvFF4y-19">
          <mxGeometry x="-0.0571" y="3" relative="1" as="geometry">
            <mxPoint y="-12" as="offset" />
          </mxGeometry>
        </mxCell>
        <mxCell id="a1Kd-LdauhGFf-AvFF4y-21" value="ESP32&lt;div&gt;(micropython)&lt;/div&gt;" style="rounded=1;whiteSpace=wrap;html=1;" vertex="1" parent="1">
          <mxGeometry x="640" y="470" width="120" height="60" as="geometry" />
        </mxCell>
        <mxCell id="a1Kd-LdauhGFf-AvFF4y-22" style="edgeStyle=orthogonalEdgeStyle;rounded=0;orthogonalLoop=1;jettySize=auto;html=1;entryX=1;entryY=0.5;entryDx=0;entryDy=0;endArrow=none;startFill=0;" edge="1" parent="1" source="a1Kd-LdauhGFf-AvFF4y-24" target="a1Kd-LdauhGFf-AvFF4y-21">
          <mxGeometry relative="1" as="geometry" />
        </mxCell>
        <mxCell id="a1Kd-LdauhGFf-AvFF4y-23" value="" style="edgeStyle=orthogonalEdgeStyle;rounded=0;orthogonalLoop=1;jettySize=auto;html=1;endArrow=none;startFill=0;" edge="1" parent="1" source="a1Kd-LdauhGFf-AvFF4y-24" target="a1Kd-LdauhGFf-AvFF4y-26">
          <mxGeometry relative="1" as="geometry" />
        </mxCell>
        <mxCell id="a1Kd-LdauhGFf-AvFF4y-24" value="DS18B20&lt;div&gt;1Wire&lt;/div&gt;" style="ellipse;whiteSpace=wrap;html=1;aspect=fixed;labelPosition=center;verticalLabelPosition=bottom;align=center;verticalAlign=top;" vertex="1" parent="1">
          <mxGeometry x="800" y="485" width="30" height="30" as="geometry" />
        </mxCell>
        <mxCell id="a1Kd-LdauhGFf-AvFF4y-25" value="" style="edgeStyle=orthogonalEdgeStyle;rounded=0;orthogonalLoop=1;jettySize=auto;html=1;endArrow=none;startFill=0;" edge="1" parent="1" source="a1Kd-LdauhGFf-AvFF4y-26" target="a1Kd-LdauhGFf-AvFF4y-28">
          <mxGeometry relative="1" as="geometry" />
        </mxCell>
        <mxCell id="a1Kd-LdauhGFf-AvFF4y-26" value="DS18B20&lt;div&gt;1Wire&lt;/div&gt;" style="ellipse;whiteSpace=wrap;html=1;aspect=fixed;labelPosition=center;verticalLabelPosition=bottom;align=center;verticalAlign=top;" vertex="1" parent="1">
          <mxGeometry x="910" y="485" width="30" height="30" as="geometry" />
        </mxCell>
        <mxCell id="a1Kd-LdauhGFf-AvFF4y-27" value="" style="edgeStyle=orthogonalEdgeStyle;rounded=0;orthogonalLoop=1;jettySize=auto;html=1;endArrow=none;startFill=0;" edge="1" parent="1" source="a1Kd-LdauhGFf-AvFF4y-28" target="a1Kd-LdauhGFf-AvFF4y-29">
          <mxGeometry relative="1" as="geometry" />
        </mxCell>
        <mxCell id="a1Kd-LdauhGFf-AvFF4y-28" value="DS18B20&lt;div&gt;1Wire&lt;/div&gt;" style="ellipse;whiteSpace=wrap;html=1;aspect=fixed;labelPosition=center;verticalLabelPosition=bottom;align=center;verticalAlign=top;" vertex="1" parent="1">
          <mxGeometry x="1020" y="485" width="30" height="30" as="geometry" />
        </mxCell>
        <mxCell id="a1Kd-LdauhGFf-AvFF4y-29" value="DS18B20&lt;div&gt;1Wire&lt;/div&gt;" style="ellipse;whiteSpace=wrap;html=1;aspect=fixed;labelPosition=center;verticalLabelPosition=bottom;align=center;verticalAlign=top;" vertex="1" parent="1">
          <mxGeometry x="1130" y="485" width="30" height="30" as="geometry" />
        </mxCell>
        <mxCell id="a1Kd-LdauhGFf-AvFF4y-30" value="ESP32&lt;div&gt;(micropython)&lt;/div&gt;" style="rounded=1;whiteSpace=wrap;html=1;" vertex="1" parent="1">
          <mxGeometry x="640" y="610" width="120" height="60" as="geometry" />
        </mxCell>
        <mxCell id="a1Kd-LdauhGFf-AvFF4y-31" style="edgeStyle=orthogonalEdgeStyle;rounded=0;orthogonalLoop=1;jettySize=auto;html=1;entryX=1;entryY=0.5;entryDx=0;entryDy=0;endArrow=none;startFill=0;" edge="1" parent="1" source="a1Kd-LdauhGFf-AvFF4y-33" target="a1Kd-LdauhGFf-AvFF4y-30">
          <mxGeometry relative="1" as="geometry" />
        </mxCell>
        <mxCell id="a1Kd-LdauhGFf-AvFF4y-32" value="" style="edgeStyle=orthogonalEdgeStyle;rounded=0;orthogonalLoop=1;jettySize=auto;html=1;endArrow=none;startFill=0;" edge="1" parent="1" source="a1Kd-LdauhGFf-AvFF4y-33" target="a1Kd-LdauhGFf-AvFF4y-35">
          <mxGeometry relative="1" as="geometry" />
        </mxCell>
        <mxCell id="a1Kd-LdauhGFf-AvFF4y-33" value="DS18B20&lt;div&gt;1Wire&lt;/div&gt;" style="ellipse;whiteSpace=wrap;html=1;aspect=fixed;labelPosition=center;verticalLabelPosition=bottom;align=center;verticalAlign=top;" vertex="1" parent="1">
          <mxGeometry x="800" y="625" width="30" height="30" as="geometry" />
        </mxCell>
        <mxCell id="a1Kd-LdauhGFf-AvFF4y-34" value="" style="edgeStyle=orthogonalEdgeStyle;rounded=0;orthogonalLoop=1;jettySize=auto;html=1;endArrow=none;startFill=0;" edge="1" parent="1" source="a1Kd-LdauhGFf-AvFF4y-35" target="a1Kd-LdauhGFf-AvFF4y-37">
          <mxGeometry relative="1" as="geometry" />
        </mxCell>
        <mxCell id="a1Kd-LdauhGFf-AvFF4y-35" value="DS18B20&lt;div&gt;1Wire&lt;/div&gt;" style="ellipse;whiteSpace=wrap;html=1;aspect=fixed;labelPosition=center;verticalLabelPosition=bottom;align=center;verticalAlign=top;" vertex="1" parent="1">
          <mxGeometry x="910" y="625" width="30" height="30" as="geometry" />
        </mxCell>
        <mxCell id="a1Kd-LdauhGFf-AvFF4y-36" value="" style="edgeStyle=orthogonalEdgeStyle;rounded=0;orthogonalLoop=1;jettySize=auto;html=1;endArrow=none;startFill=0;" edge="1" parent="1" source="a1Kd-LdauhGFf-AvFF4y-37" target="a1Kd-LdauhGFf-AvFF4y-38">
          <mxGeometry relative="1" as="geometry" />
        </mxCell>
        <mxCell id="a1Kd-LdauhGFf-AvFF4y-37" value="DS18B20&lt;div&gt;1Wire&lt;/div&gt;" style="ellipse;whiteSpace=wrap;html=1;aspect=fixed;labelPosition=center;verticalLabelPosition=bottom;align=center;verticalAlign=top;" vertex="1" parent="1">
          <mxGeometry x="1020" y="625" width="30" height="30" as="geometry" />
        </mxCell>
        <mxCell id="a1Kd-LdauhGFf-AvFF4y-38" value="DS18B20&lt;div&gt;1Wire&lt;/div&gt;" style="ellipse;whiteSpace=wrap;html=1;aspect=fixed;labelPosition=center;verticalLabelPosition=bottom;align=center;verticalAlign=top;" vertex="1" parent="1">
          <mxGeometry x="1130" y="625" width="30" height="30" as="geometry" />
        </mxCell>
        <mxCell id="a1Kd-LdauhGFf-AvFF4y-39" value="..." style="text;html=1;align=center;verticalAlign=middle;resizable=0;points=[];autosize=1;strokeColor=none;fillColor=none;fontSize=23;" vertex="1" parent="1">
          <mxGeometry x="680" y="550" width="40" height="40" as="geometry" />
        </mxCell>
        <mxCell id="a1Kd-LdauhGFf-AvFF4y-40" value="" style="shape=flexArrow;endArrow=classic;startArrow=classic;html=1;rounded=0;exitX=1;exitY=0.75;exitDx=0;exitDy=0;entryX=0;entryY=0.5;entryDx=0;entryDy=0;" edge="1" parent="1" source="a1Kd-LdauhGFf-AvFF4y-18" target="a1Kd-LdauhGFf-AvFF4y-21">
          <mxGeometry width="100" height="100" relative="1" as="geometry">
            <mxPoint x="480" y="469" as="sourcePoint" />
            <mxPoint x="660" y="469" as="targetPoint" />
          </mxGeometry>
        </mxCell>
        <mxCell id="a1Kd-LdauhGFf-AvFF4y-41" value="MODBUS TCP" style="edgeLabel;html=1;align=center;verticalAlign=middle;resizable=0;points=[];rotation=15;" vertex="1" connectable="0" parent="a1Kd-LdauhGFf-AvFF4y-40">
          <mxGeometry x="-0.0571" y="3" relative="1" as="geometry">
            <mxPoint y="-12" as="offset" />
          </mxGeometry>
        </mxCell>
        <mxCell id="a1Kd-LdauhGFf-AvFF4y-42" value="" style="shape=flexArrow;endArrow=classic;startArrow=classic;html=1;rounded=0;exitX=1.025;exitY=0.963;exitDx=0;exitDy=0;entryX=0;entryY=0.5;entryDx=0;entryDy=0;exitPerimeter=0;" edge="1" parent="1" source="a1Kd-LdauhGFf-AvFF4y-18" target="a1Kd-LdauhGFf-AvFF4y-30">
          <mxGeometry width="100" height="100" relative="1" as="geometry">
            <mxPoint x="470" y="480" as="sourcePoint" />
            <mxPoint x="650" y="480" as="targetPoint" />
          </mxGeometry>
        </mxCell>
        <mxCell id="a1Kd-LdauhGFf-AvFF4y-43" value="MODBUS TCP" style="edgeLabel;html=1;align=center;verticalAlign=middle;resizable=0;points=[];rotation=35;" vertex="1" connectable="0" parent="a1Kd-LdauhGFf-AvFF4y-42">
          <mxGeometry x="-0.0571" y="3" relative="1" as="geometry">
            <mxPoint y="-12" as="offset" />
          </mxGeometry>
        </mxCell>
        <mxCell id="a1Kd-LdauhGFf-AvFF4y-44" value="Frontend module&lt;div&gt;telegram bot&lt;/div&gt;&lt;div&gt;ERRBOT&lt;br&gt;&lt;div&gt;(python)&lt;/div&gt;&lt;/div&gt;" style="whiteSpace=wrap;html=1;aspect=fixed;" vertex="1" parent="1">
          <mxGeometry x="300" y="70" width="160" height="160" as="geometry" />
        </mxCell>
        <mxCell id="a1Kd-LdauhGFf-AvFF4y-45" value="" style="shape=flexArrow;endArrow=classic;startArrow=classic;html=1;rounded=0;entryX=0.5;entryY=1;entryDx=0;entryDy=0;exitX=0.5;exitY=0;exitDx=0;exitDy=0;" edge="1" parent="1" source="a1Kd-LdauhGFf-AvFF4y-18" target="a1Kd-LdauhGFf-AvFF4y-44">
          <mxGeometry width="100" height="100" relative="1" as="geometry">
            <mxPoint x="300" y="340" as="sourcePoint" />
            <mxPoint x="400" y="240" as="targetPoint" />
          </mxGeometry>
        </mxCell>
        <mxCell id="a1Kd-LdauhGFf-AvFF4y-46" value="API" style="edgeLabel;html=1;align=center;verticalAlign=middle;resizable=0;points=[];" vertex="1" connectable="0" parent="a1Kd-LdauhGFf-AvFF4y-45">
          <mxGeometry x="0.2364" relative="1" as="geometry">
            <mxPoint x="20" y="8" as="offset" />
          </mxGeometry>
        </mxCell>
        <mxCell id="a1Kd-LdauhGFf-AvFF4y-47" value="СУБД&lt;div&gt;MariaDB&lt;/div&gt;" style="shape=cylinder3;whiteSpace=wrap;html=1;boundedLbl=1;backgroundOutline=1;size=15;" vertex="1" parent="1">
          <mxGeometry x="350" y="600" width="60" height="80" as="geometry" />
        </mxCell>
        <mxCell id="a1Kd-LdauhGFf-AvFF4y-48" value="" style="shape=flexArrow;endArrow=classic;startArrow=classic;html=1;rounded=0;entryX=0.5;entryY=1;entryDx=0;entryDy=0;" edge="1" parent="1">
          <mxGeometry width="100" height="100" relative="1" as="geometry">
            <mxPoint x="380" y="600" as="sourcePoint" />
            <mxPoint x="379.5" y="500" as="targetPoint" />
          </mxGeometry>
        </mxCell>
        <mxCell id="a1Kd-LdauhGFf-AvFF4y-49" value="SQL" style="edgeLabel;html=1;align=center;verticalAlign=middle;resizable=0;points=[];" vertex="1" connectable="0" parent="a1Kd-LdauhGFf-AvFF4y-48">
          <mxGeometry x="0.2364" relative="1" as="geometry">
            <mxPoint x="20" y="8" as="offset" />
          </mxGeometry>
        </mxCell>
        <mxCell id="a1Kd-LdauhGFf-AvFF4y-50" value="Telegram messenger" style="ellipse;shape=cloud;whiteSpace=wrap;html=1;" vertex="1" parent="1">
          <mxGeometry x="540" y="110" width="210" height="120" as="geometry" />
        </mxCell>
        <mxCell id="a1Kd-LdauhGFf-AvFF4y-51" value="User" style="shape=umlActor;verticalLabelPosition=bottom;verticalAlign=top;html=1;outlineConnect=0;" vertex="1" parent="1">
          <mxGeometry x="1000" y="100" width="30" height="60" as="geometry" />
        </mxCell>
        <mxCell id="a1Kd-LdauhGFf-AvFF4y-54" style="edgeStyle=orthogonalEdgeStyle;rounded=0;orthogonalLoop=1;jettySize=auto;html=1;exitX=0.5;exitY=0.5;exitDx=0;exitDy=0;exitPerimeter=0;entryX=0.96;entryY=0.7;entryDx=0;entryDy=0;entryPerimeter=0;endArrow=none;startFill=0;" edge="1" parent="1" source="a1Kd-LdauhGFf-AvFF4y-51" target="a1Kd-LdauhGFf-AvFF4y-50">
          <mxGeometry relative="1" as="geometry" />
        </mxCell>
        <mxCell id="a1Kd-LdauhGFf-AvFF4y-55" style="edgeStyle=orthogonalEdgeStyle;rounded=0;orthogonalLoop=1;jettySize=auto;html=1;exitX=0.07;exitY=0.4;exitDx=0;exitDy=0;exitPerimeter=0;entryX=1.006;entryY=0.556;entryDx=0;entryDy=0;entryPerimeter=0;endArrow=none;startFill=0;" edge="1" parent="1" source="a1Kd-LdauhGFf-AvFF4y-50" target="a1Kd-LdauhGFf-AvFF4y-44">
          <mxGeometry relative="1" as="geometry" />
        </mxCell>
      </root>
    </mxGraphModel>
  </diagram>
</mxfile>
